<svg width="158" height="134" xmlns="http://www.w3.org/2000/svg" xmlns:xlink="http://www.w3.org/1999/xlink" overflow="hidden"><defs><clipPath id="clip0"><path d="M253 94 411 94 411 228 253 228Z" fill-rule="evenodd" clip-rule="evenodd"/></clipPath></defs><g clip-path="url(#clip0)" transform="translate(-253 -94)"><path d="M303.539 157.845C303.539 142.355 316.335 129.52 331.779 129.52 347.665 129.52 360.02 142.355 360.02 157.845 360.02 173.334 347.665 186.169 331.779 186.169 316.335 186.169 303.539 173.334 303.539 157.845ZM371.493 226C371.493 204.314 353.842 186.611 331.779 186.611 310.158 186.611 292.507 204.314 292.507 226M279.711 130.405C289.418 130.405 297.361 122.439 297.361 112.703 297.361 102.966 289.418 95 279.711 95 270.003 95 262.06 102.966 262.06 112.703 262.06 122.439 270.003 130.405 279.711 130.405ZM303.98 155.189C303.98 141.912 292.948 130.848 279.711 130.848 266.032 130.848 255 141.912 255 155.189M384.289 130.405C393.997 130.405 401.94 122.439 401.94 112.703 401.94 102.966 393.997 95 384.289 95 374.582 95 366.639 102.966 366.639 112.703 366.639 122.439 374.582 130.405 384.289 130.405ZM409 155.189C409 141.912 397.968 130.848 384.289 130.848 370.61 130.848 359.579 141.912 359.579 155.189" stroke="#038274" stroke-width="1.66667" stroke-linecap="square" stroke-miterlimit="8" fill="none" fill-rule="evenodd"/></g></svg>