<svg width="203" height="127" xmlns="http://www.w3.org/2000/svg" xmlns:xlink="http://www.w3.org/1999/xlink" overflow="hidden"><defs><clipPath id="clip0"><path d="M254 286 457 286 457 413 254 413Z" fill-rule="evenodd" clip-rule="evenodd"/></clipPath></defs><g clip-path="url(#clip0)" transform="translate(-254 -286)"><path d="M455 338.914 455 411 255 411 255 338.914 293.579 310.684 293.579 338.914 336.218 310.684 336.218 338.914 455 338.914M411.853 338.914 401.701 288 393.579 288 384.949 338.914M446.878 338.914 436.726 288 427.589 288 419.467 338.914M283.934 360.59 273.274 360.59 273.274 371.176 283.934 371.176 283.934 360.59M321.497 360.59 311.853 360.59 311.853 371.176 321.497 371.176 321.497 360.59M360.076 360.59 350.431 360.59 350.431 371.176 360.076 371.176 360.076 360.59M398.655 360.59 387.995 360.59 387.995 371.176 398.655 371.176 398.655 360.59M436.726 360.59 426.574 360.59 426.574 371.176 436.726 371.176 436.726 360.59" stroke="#038274" stroke-width="1.66667" stroke-linecap="square" stroke-miterlimit="8" fill="none" fill-rule="evenodd"/></g></svg>