<svg width="158" height="163" xmlns="http://www.w3.org/2000/svg" xmlns:xlink="http://www.w3.org/1999/xlink" overflow="hidden"><defs><clipPath id="clip0"><path d="M250 93 408 93 408 256 250 256Z" fill-rule="evenodd" clip-rule="evenodd"/></clipPath></defs><g clip-path="url(#clip0)" transform="translate(-250 -93)"><path d="M252 110.239C406 110.239 406 110.239 406 110.239M328.959 95C328.959 232.682 328.959 232.682 328.959 232.682M252 171.851C313.6 171.851 313.6 171.851 313.6 171.851M344.4 171.851C406 171.851 406 171.851 406 171.851M262.267 254C395.733 254 395.733 254 395.733 254M379.964 253.918C351.792 225.782 306.208 225.782 278.036 253.918M257.667 171.851C260.008 183.557 270.398 192.388 282.8 192.388 295.202 192.388 305.551 183.598 307.933 171.892M350.067 171.851C352.449 183.557 362.798 192.388 375.2 192.388 387.602 192.388 397.951 183.598 400.333 171.892M283.375 110.239C282.225 110.239 282.225 110.239 282.225 110.239 264.854 171.851 264.854 171.851 264.854 171.851 300.787 171.851 300.787 171.851 300.787 171.851 300.787 171.851 284.484 113.935 283.375 110.239ZM375.775 110.239C374.625 110.239 374.625 110.239 374.625 110.239 357.254 171.851 357.254 171.851 357.254 171.851 393.187 171.851 393.187 171.851 393.187 171.851 393.187 171.851 376.884 113.935 375.775 110.239Z" stroke="#038274" stroke-width="1.66667" stroke-linecap="square" stroke-miterlimit="8" fill="none" fill-rule="evenodd"/></g></svg>