<svg width="145" height="135" xmlns="http://www.w3.org/2000/svg" xmlns:xlink="http://www.w3.org/1999/xlink" overflow="hidden"><defs><clipPath id="clip0"><path d="M276 94 421 94 421 229 276 229Z" fill-rule="evenodd" clip-rule="evenodd"/></clipPath></defs><g clip-path="url(#clip0)" transform="translate(-276 -94)"><path d="M383.159 227C366.617 227 366.617 227 366.617 227 346.925 227 330.777 207.916 330.777 184.458 330.777 161 346.925 142.313 366.617 142.313 383.159 142.313 383.159 142.313 383.159 142.313M383.159 142.313C363.466 142.313 347.712 161 347.712 184.458 347.712 207.916 363.466 227 383.159 227 402.852 227 419 207.916 419 184.458 419 161 402.852 142.313 383.159 142.313ZM278 201.952C278 215.867 298.48 227 323.687 227 333.534 227 342.592 225.012 350.075 222.229M278 181.675C278 195.193 298.48 206.325 323.687 206.325 327.626 206.325 331.564 205.928 335.503 205.53M278 161C278 174.916 298.48 186.048 323.687 186.048 326.05 186.048 328.413 185.651 330.777 185.651M278 140.723C278 154.241 298.48 165.373 323.687 165.373 326.838 165.373 331.958 164.976 335.109 164.181M323.687 95C298.48 95 278 106.133 278 120.048 278 133.964 298.48 145.096 323.687 145.096 348.5 145.096 368.98 133.964 368.98 120.048 368.98 106.133 348.5 95 323.687 95ZM278 120.048C278 201.952 278 201.952 278 201.952M368.98 120.048C368.98 142.313 368.98 142.313 368.98 142.313" stroke="#038274" stroke-width="1.66667" stroke-linecap="square" stroke-miterlimit="8" fill="none" fill-rule="evenodd"/></g></svg>